<svg width="18" height="19" viewBox="0 0 18 19" fill="none" xmlns="http://www.w3.org/2000/svg">
<path d="M14.4231 18.9998C13.6387 18.9998 12.5367 18.7004 10.8867 17.7275C8.88015 16.54 7.32813 15.4437 5.33246 13.343C3.40831 11.3136 2.47196 9.99975 1.16147 7.48307C-0.319011 4.64152 -0.0666378 3.15203 0.215473 2.51544C0.551435 1.75458 1.04734 1.29951 1.68832 0.847831C2.05239 0.596093 2.43767 0.380297 2.83927 0.20318C2.87946 0.184944 2.91683 0.167555 2.95018 0.151863C3.14911 0.0572858 3.45051 -0.0856401 3.83228 0.0670404C4.08707 0.167979 4.31453 0.374522 4.67058 0.74562C5.40077 1.50563 6.39861 3.19826 6.76672 4.02952C7.01387 4.58977 7.17743 4.9596 7.17783 5.37438C7.17783 5.85999 6.94636 6.23448 6.66545 6.63866C6.61281 6.71458 6.56056 6.7871 6.50993 6.8575C6.20411 7.28161 6.137 7.40418 6.1812 7.62302C6.27082 8.06283 6.93912 9.37206 8.03743 10.5286C9.13573 11.6852 10.3405 12.3459 10.7589 12.4401C10.9751 12.4889 11.0936 12.4151 11.5084 12.0809C11.5678 12.0329 11.6289 11.9833 11.6928 11.9337C12.1212 11.5974 12.4596 11.3595 12.9089 11.3595H12.9113C13.3023 11.3595 13.6371 11.5384 14.1916 11.8336C14.915 12.2187 16.5671 13.2582 17.2916 14.0297C17.6441 14.4046 17.8406 14.6438 17.9366 14.9122C18.0813 15.3164 17.9451 15.6332 17.8563 15.8453C17.8414 15.8805 17.8249 15.9191 17.8076 15.9619C17.6385 16.385 17.4328 16.7907 17.1932 17.174C16.766 17.8484 16.3332 18.3705 15.6106 18.7254C15.2396 18.9107 14.8335 19.0045 14.4231 18.9998Z" fill="white"/>
</svg>
