<svg width="26" height="26" viewBox="0 0 26 26" fill="none" xmlns="http://www.w3.org/2000/svg">
<g clip-path="url(#clip0_12_16)">
<path d="M13 26C20.1797 26 26 20.1797 26 13C26 5.8203 20.1797 0 13 0C5.8203 0 0 5.8203 0 13C0 20.1797 5.8203 26 13 26Z" fill="white"/>
<path fill-rule="evenodd" clip-rule="evenodd" d="M5.88448 12.8628C9.67424 11.2116 12.2013 10.1231 13.4658 9.59717C17.076 8.09555 17.8262 7.83471 18.3152 7.82609C18.4227 7.8242 18.6632 7.85085 18.8189 7.97723C18.9504 8.08395 18.9866 8.22811 19.0039 8.32929C19.0212 8.43047 19.0428 8.66096 19.0257 8.84106C18.83 10.8967 17.9835 15.8851 17.5528 18.1874C17.3706 19.1616 17.0118 19.4882 16.6644 19.5202C15.9095 19.5897 15.3362 19.0213 14.605 18.542C13.4608 17.792 12.8145 17.3251 11.7038 16.5932C10.4203 15.7474 11.2524 15.2825 11.9838 14.5228C12.1753 14.3239 15.5015 11.2985 15.5659 11.024C15.574 10.9897 15.5814 10.8617 15.5054 10.7942C15.4294 10.7266 15.3172 10.7497 15.2363 10.7681C15.1215 10.7941 13.2937 12.0023 9.75279 14.3925C9.23397 14.7487 8.76403 14.9223 8.34299 14.9132C7.87882 14.9032 6.98595 14.6508 6.32219 14.435C5.50807 14.1704 4.86102 14.0304 4.91736 13.581C4.94671 13.3469 5.26908 13.1075 5.88448 12.8628Z" fill="#202020"/>
</g>
<defs>
<clipPath id="clip0_12_16">
<rect width="26" height="26" fill="white"/>
</clipPath>
</defs>
</svg>
